# xmcd CD database file
#
# Track frame offsets:
#	150
#	11844
#	23057
#	36079
#	50211
#	61037
#	72582
#	84473
#	96847
#	108960
#	126661
#	140135
#	152234
#	164550
#	176267
#	188822
#	201029
#	220037
#	233306
#	250734
#
# Disc length: 3538 seconds
#
# Revision: 0
# Processed by: cddbd v1.5.2PL0 Copyright (c) Steve Scherf et al.
# Submitted via: CDex 1.70beta2
#
DISCID=180dd014
DTITLE=Compilation Bal Country - Voix légendaires de la country music
DYEAR=2012
DGENRE=Country
TTITLE0=Walking after midnight
TTITLE1=It's only make beleive
TTITLE2=The fightin' side of me
TTITLE3=Dixie road
TTITLE4=Honky tonk merry go round
TTITLE5=Heaven's just a sin away
TTITLE6=Lying here with Linda on my mind
TTITLE7=Workin' man blues
TTITLE8=It don't feel like sinnin' to me
TTITLE9=I think I'll just stay here and drink
TTITLE10=The Pittsburgh steelers
TTITLE11=Sweet desire
TTITLE12=Okie from muskogee
TTITLE13=Crazy dreams
TTITLE14=If we make it through december
TTITLE15=Don't think twice it's all right
TTITLE16=Rocky mountain high
TTITLE17=Ring of fire
TTITLE18=Woodcarver
TTITLE19=Take me home country roads
EXTD=YEAR: 2012
EXTT0=
EXTT1=
EXTT2=
EXTT3=
EXTT4=
EXTT5=
EXTT6=
EXTT7=
EXTT8=
EXTT9=
EXTT10=
EXTT11=
EXTT12=
EXTT13=
EXTT14=
EXTT15=
EXTT16=
EXTT17=
EXTT18=
EXTT19=
PLAYORDER=
